<svg xmlns="http://www.w3.org/2000/svg" viewBox="0 0 1080 1080"><defs><style>.cls-1{isolation:isolate;}.cls-2{fill:#99adf9;}.cls-3{fill:#e1ecff;}.cls-4{fill:#738de0;}.cls-5,.cls-6{fill:#c7dcf9;}.cls-6,.cls-9{stroke:#fff;stroke-width:12px;}.cls-10,.cls-6,.cls-8,.cls-9{stroke-miterlimit:10;}.cls-7{fill:#1c3177;}.cls-10,.cls-8,.cls-9{fill:none;}.cls-8{stroke:#1c3177;stroke-linecap:round;stroke-width:11.69px;}.cls-10{stroke:#738de0;stroke-width:15px;}.cls-11,.cls-13{fill:#fec272;}.cls-12{fill:#fea691;}.cls-13{opacity:0.45;mix-blend-mode:multiply;}.cls-14{fill:#f774b9;}</style></defs><g class="cls-1"><g id="Layer_2" data-name="Layer 2"><path class="cls-2" d="M984.05,715.52l-38.93-1.08L723.51,580.67,297.38,696.37l-100.7-2.81v20a18.69,18.69,0,0,0,8.38,15.6L460.9,898.56a48.3,48.3,0,0,0,40.83,5.89L974.14,759.26a13.9,13.9,0,0,0,9.9-13.69h0Z"/><path class="cls-2" d="M723.51,550.52l-526.83,143L127.14,321.29a14,14,0,0,1,10.6-16.24l503-117.57a14,14,0,0,1,17,11.09Z"/><path class="cls-3" d="M671.07,525.12,238.83,642.48a9.93,9.93,0,0,1-12.37-7.78L173.4,348.18a9.92,9.92,0,0,1,7.5-11.48L616.07,235a9.93,9.93,0,0,1,12,7.86l50.14,270.87A9.94,9.94,0,0,1,671.07,525.12Z"/><path class="cls-4" d="M974.14,729.12,501.73,874.3a48.3,48.3,0,0,1-40.83-5.89L196.68,693.56l526.83-143L977.26,703.69A14,14,0,0,1,974.14,729.12Z"/><path class="cls-2" d="M918.62,715.19,509.7,840.86a36.72,36.72,0,0,1-31-4.44L288.65,711.15A6.19,6.19,0,0,1,290.43,700L703.18,587.94a36.7,36.7,0,0,1,28.4,3.88L920,703.94A6.2,6.2,0,0,1,918.62,715.19Z"/><polygon class="cls-5" points="424.23 733.88 501.54 711.36 577.57 761.19 501.65 784.62 424.23 733.88"/><polygon class="cls-5" points="499.51 639.26 576.82 616.74 652.85 666.57 576.93 690 499.51 639.26"/><polygon class="cls-5" points="724.76 712.62 802.06 690.1 861.29 733.91 785.37 757.34 724.76 712.62"/><ellipse class="cls-6" cx="340.38" cy="444.88" rx="65.39" ry="59.81" transform="translate(-160.99 694.68) rotate(-79.06)"/><ellipse class="cls-6" cx="524.08" cy="402.5" rx="65.39" ry="59.81" transform="translate(29.47 840.7) rotate(-79.06)"/><ellipse class="cls-7" cx="350.32" cy="448.5" rx="23.8" ry="21.77" transform="translate(-156.49 707.37) rotate(-79.06)"/><ellipse class="cls-7" cx="516.68" cy="410.12" rx="23.8" ry="21.77" transform="translate(15.99 839.61) rotate(-79.06)"/><path class="cls-8" d="M461,457.85s-2.18,15.94-20.07,20.07-24.45-9.8-24.45-9.8"/><path class="cls-9" d="M399.47,431.25s23-22.27,65.53-15.12"/><line class="cls-10" x1="339.47" y1="678.33" x2="572.59" y2="831.11"/><line class="cls-10" x1="413.05" y1="653.37" x2="646.17" y2="806.15"/><line class="cls-10" x1="486.63" y1="628.41" x2="719.76" y2="781.19"/><line class="cls-10" x1="568.31" y1="613.22" x2="801.43" y2="766"/><line class="cls-10" x1="637.89" y1="584.43" x2="871.01" y2="737.21"/><line class="cls-10" x1="419.78" y1="809.88" x2="882.07" y2="667.23"/><line class="cls-10" x1="343.7" y1="757.34" x2="808.67" y2="621.89"/><rect class="cls-11" x="735.14" y="318.75" width="111.38" height="334.67" transform="translate(468.53 -384.44) rotate(38.11)"/><path class="cls-12" d="M643.74,583.38,629.88,678.6a9,9,0,0,0,12.34,9.67l89.16-36.15Z"/><path class="cls-7" d="M634.89,644.21l-5,34.39a9,9,0,0,0,12.34,9.67l32.2-13Z"/><rect class="cls-13" x="772.04" y="319.05" width="37.37" height="334.33" transform="translate(468.59 -384.35) rotate(38.11)"/><path class="cls-14" d="M873.2,292.6h71.64a19.87,19.87,0,0,1,19.87,19.87v65.71a0,0,0,0,1,0,0H853.32a0,0,0,0,1,0,0V312.48A19.87,19.87,0,0,1,873.2,292.6Z" transform="translate(400.73 -489.49) rotate(38.11)"/><rect class="cls-5" x="835.89" y="343.07" width="111.38" height="29.09" transform="translate(410.73 -474) rotate(38.11)"/></g></g></svg>